<svg width="33" height="14" viewBox="0 0 33 14" fill="none" xmlns="http://www.w3.org/2000/svg">
<path d="M27.0771 4.27767C24.0333 1.62881 20.0847 0 15.7248 0C8.88053 0 2.99051 3.98152 0.193576 9.75637C-0.332907 10.8587 0.259386 12.1749 1.42752 12.5698C2.39822 12.8988 3.45118 12.4381 3.8954 11.5168C6.03424 7.14042 10.5258 4.11314 15.7248 4.11314C18.9331 4.11314 21.8616 5.29773 24.1485 7.20623L21.0061 10.3487C19.9696 11.3852 20.6935 13.1621 22.1578 13.1621H31.3547C32.2596 13.1621 33 12.4217 33 11.5168V2.31981C33 0.855533 31.2231 0.115168 30.1866 1.15168L27.0771 4.27767Z"/>
</svg>
