<svg width="33" height="14" viewBox="0 0 33 14" fill="none" xmlns="http://www.w3.org/2000/svg">
<path d="M17.2666 0C12.9088 0 8.96218 1.62799 5.91997 4.27554L2.81199 1.16755C1.77599 0.131555 0 0.855107 0 2.31866V11.5111C0 12.4155 0.739997 13.1555 1.64444 13.1555H10.8368C12.3004 13.1555 13.0404 11.3795 12.0044 10.3435L8.86352 7.20263C11.1493 5.29509 14.0599 4.11109 17.283 4.11109C22.4795 4.11109 26.9688 7.13686 29.1065 11.5111C29.5505 12.4319 30.603 12.8924 31.5732 12.5635C32.7407 12.1853 33.3327 10.8533 32.8065 9.73507C29.9781 3.97954 24.091 0 17.2666 0Z"/>
</svg>
